<?xml version="1.0" standalone="no"?>
<!DOCTYPE svg PUBLIC "-//W3C//DTD SVG 20010904//EN"
 "http://www.w3.org/TR/2001/REC-SVG-20010904/DTD/svg10.dtd">
<svg version="1.0" xmlns="http://www.w3.org/2000/svg"
 width="512.000000pt" height="512.000000pt" viewBox="0 0 512.000000 512.000000"
 preserveAspectRatio="xMidYMid meet">

<g transform="translate(0.000000,512.000000) scale(0.100000,-0.100000)"
fill="#004d00" stroke="none">
<path d="M2961 4844 c-85 -30 -138 -76 -256 -217 -80 -96 -83 -97 -445 -87
-196 5 -297 -27 -395 -125 -97 -97 -139 -213 -156 -430 -5 -71 -16 -149 -25
-172 -26 -70 -87 -115 -214 -157 -140 -45 -201 -77 -255 -131 -123 -122 -142
-276 -72 -560 53 -214 53 -208 16 -239 -17 -15 -99 -59 -182 -100 -177 -85
-240 -136 -286 -226 -82 -165 -43 -314 149 -570 56 -74 108 -147 116 -162 19
-37 9 -79 -32 -127 -45 -52 -106 -80 -197 -90 -86 -10 -126 -32 -151 -85 -23
-48 -21 -121 5 -162 35 -57 78 -76 169 -76 319 3 593 299 534 578 -18 86 -47
139 -166 300 -57 77 -112 157 -122 178 -32 68 -29 72 165 168 144 71 185 96
230 141 86 86 112 143 117 253 4 81 0 109 -37 257 -46 187 -52 264 -22 291 11
10 59 30 108 46 163 52 232 90 321 179 51 51 104 142 127 218 8 26 19 104 25
173 17 204 37 268 94 292 31 13 64 14 331 7 262 -6 359 38 530 241 81 96 99
104 134 62 14 -17 43 -50 63 -75 64 -76 160 -84 232 -18 34 31 56 79 56 120 0
43 -57 143 -119 206 -78 81 -144 109 -256 112 -63 2 -103 -2 -134 -13z"/>
<path d="M3246 4294 c-733 -114 -1356 -772 -1659 -1754 -85 -275 -133 -521
-172 -890 -3 -30 -10 -167 -15 -305 -7 -192 -14 -267 -28 -321 -57 -213 -176
-351 -358 -415 -81 -28 -225 -29 -311 -1 -127 40 -235 136 -298 265 -64 133
-70 170 -70 467 1 317 23 554 76 830 149 767 469 1314 964 1648 70 48 88 76
93 144 4 50 1 64 -22 98 -33 50 -75 72 -138 72 -58 -1 -121 -37 -278 -163
-424 -339 -732 -864 -895 -1528 -106 -436 -164 -1103 -120 -1391 43 -289 176
-512 390 -657 238 -160 565 -179 826 -48 234 119 398 339 465 624 18 81 34
263 34 407 0 213 43 558 101 814 220 972 776 1660 1433 1775 111 19 291 19
388 1 532 -102 966 -631 1117 -1363 42 -202 22 -314 -73 -408 -28 -28 -73 -63
-101 -79 -27 -15 -648 -311 -1380 -658 -731 -346 -1341 -639 -1353 -651 -77
-72 -68 -197 19 -254 83 -55 -4 -91 1459 602 729 345 1354 643 1390 663 188
103 312 247 366 427 27 89 25 286 -5 425 -179 825 -650 1419 -1263 1591 -173
49 -400 62 -582 33z"/>
</g>
</svg>
